<?xml version="1.0" encoding="iso-8859-1"?>
<!-- Generator: Adobe Illustrator 19.0.0, SVG Export Plug-In . SVG Version: 6.00 Build 0)  -->
<svg version="1.1" id="Layer_1" xmlns="http://www.w3.org/2000/svg" xmlns:xlink="http://www.w3.org/1999/xlink" x="0px" y="0px"
	 viewBox="0 0 512 512" style="enable-background:new 0 0 512 512;" xml:space="preserve">
<g>
	<g>
		<path d="M358.674,377.974c-9.358-19.714-33.013-28.139-52.725-18.78c-9.55,4.533-16.763,12.514-20.31,22.474
			c-3.547,9.959-3.004,20.702,1.53,30.253c6.765,14.25,20.999,22.601,35.815,22.601c5.681,0,11.447-1.228,16.911-3.821
			C359.609,421.341,368.033,397.689,358.674,377.974z M333.451,417.124c-12.227,5.806-26.898,0.58-32.704-11.648
			c-2.813-5.924-3.15-12.588-0.95-18.765c2.2-6.177,6.674-11.127,12.597-13.939c3.39-1.609,6.966-2.371,10.49-2.371
			c9.189,0,18.018,5.181,22.213,14.018C350.903,396.647,345.678,411.318,333.451,417.124z"/>
	</g>
</g>
<g>
	<g>
		<path d="M116.966,381.667c-3.547-9.958-10.76-17.939-20.31-22.473c-19.712-9.357-43.367-0.935-52.726,18.779
			c-9.359,19.714-0.935,43.367,18.78,52.727c5.466,2.595,11.23,3.821,16.912,3.821c14.815,0,29.05-8.352,35.814-22.601
			C119.97,402.37,120.513,391.626,116.966,381.667z M101.857,405.476c-5.803,12.227-20.474,17.452-32.703,11.648
			c-12.228-5.805-17.453-20.477-11.648-32.704c4.196-8.838,13.024-14.018,22.213-14.018c3.524,0,7.101,0.763,10.489,2.371
			c5.924,2.813,10.396,7.762,12.597,13.939C105.007,392.888,104.67,399.551,101.857,405.476z"/>
	</g>
</g>
<g>
	<g>
		<path d="M202.702,241.515h-1.002c-4.15,0-7.515,3.364-7.515,7.515c0,4.151,3.365,7.515,7.515,7.515h1.002
			c4.15,0,7.515-3.364,7.515-7.515C210.217,244.878,206.853,241.515,202.702,241.515z"/>
	</g>
</g>
<g>
	<g>
		<path d="M424.327,468.89c-1.101-4.002-5.236-6.356-9.238-5.256c-4.602,1.264-13.815,2.728-23.819-1.665
			c-9.688-4.255-14.941-11.899-17.4-16.61c7.3-7.368,12.955-16.312,16.539-26.374c6.421-18.026,5.437-37.473-2.77-54.76
			c-16.942-35.685-59.758-50.933-95.441-33.992c-7.587,3.602-14.463,8.508-20.315,14.449c0,0-44.197-92.804-44.711-93.355
			l68.488-144.259c0.561-1.182,0.804-2.489,0.704-3.792l-4.901-64.439c-0.258-3.399-2.77-6.197-6.121-6.819
			c-3.346-0.62-6.7,1.087-8.161,4.165l-75.879,159.829l-36.739-77.384c-1.779-3.748-6.262-5.346-10.012-3.566
			c-3.749,1.779-5.345,6.262-3.566,10.012l41.706,87.85c0.093,0.196,0.208,0.373,0.316,0.557l-9.453,19.912l-62.177-130.967
			l2.603-34.233l14.609,30.773c1.781,3.748,6.264,5.345,10.012,3.566c3.749-1.779,5.345-6.262,3.566-10.012l-26.745-56.336
			c-1.461-3.078-4.812-4.783-8.161-4.165c-3.351,0.622-5.862,3.421-6.121,6.819l-4.901,64.439c-0.099,1.304,0.144,2.61,0.704,3.792
			l68.013,143.259c0.089,0.188,0.201,0.359,0.305,0.536l-44.541,93.819c-5.851-5.942-12.728-10.847-20.314-14.449
			c-17.287-8.206-36.735-9.191-54.761-2.77c-18.026,6.42-32.474,19.476-40.681,36.762s-9.191,36.734-2.77,54.76
			c6.421,18.026,19.476,32.473,36.763,40.681c9.893,4.697,20.328,6.919,30.614,6.918c26.816-0.002,52.583-15.118,64.829-40.91
			l56.903-119.857l56.902,119.856c8.207,17.287,22.654,30.342,40.681,36.762c7.858,2.799,15.984,4.191,24.086,4.191
			c10.484,0,20.924-2.332,30.675-6.961c2.918-1.385,5.703-2.963,8.368-4.69c4.024,6.777,11.191,15.474,23.213,20.755
			c7.271,3.194,14.235,4.218,20.178,4.218c5.704,0,10.468-0.944,13.663-1.82C423.072,477.028,425.425,472.893,424.327,468.89z
			 M130.822,419.226c-6.485,13.661-17.901,23.978-32.146,29.051c-14.245,5.073-29.613,4.295-43.273-2.19
			c-13.661-6.486-23.977-17.901-29.051-32.146c-5.074-14.245-4.296-29.613,2.189-43.273c6.485-13.661,17.901-23.978,32.146-29.051
			c6.209-2.211,12.631-3.311,19.032-3.311c8.284,0,16.534,1.843,24.24,5.501c8.974,4.26,16.688,10.827,22.309,18.992
			c3.225,4.685,10.545,4.088,12.978-1.038L278.623,68.191l2.603,34.233L130.822,419.226z M347.201,446.087
			c-13.661,6.486-29.029,7.262-43.273,2.19c-14.245-5.073-25.661-15.39-32.146-29.051l-61.039-128.57
			c-0.347-0.73-0.799-1.376-1.326-1.934l9.631-20.287l44.307,93.327c2.436,5.13,9.755,5.72,12.978,1.038
			c5.62-8.164,13.335-14.732,22.31-18.992c13.659-6.485,29.027-7.264,43.272-2.19c14.245,5.073,25.661,15.39,32.146,29.051
			c6.486,13.66,7.263,29.028,2.189,43.273C371.177,428.187,360.861,439.602,347.201,446.087z"/>
	</g>
</g>
<g>
	<g>
		<path d="M496.481,0H384.262c-5.286,0-10.238,2.077-13.942,5.85c-3.703,3.771-5.69,8.761-5.593,14.05
			c0.194,10.574,9.137,19.175,19.934,19.175h56.212v9.018h-56.212c-10.797,0-19.74,8.602-19.934,19.176
			c-0.097,5.288,1.89,10.279,5.593,14.049c3.704,3.773,8.655,5.85,13.942,5.85h56.611v9.018h-56.212
			c-10.797,0-19.74,8.602-19.934,19.176c-0.097,5.288,1.89,10.279,5.593,14.049c3.704,3.773,8.655,5.85,13.942,5.85h56.611v9.018
			h-56.212c-10.797,0-19.74,8.602-19.934,19.176c-0.097,5.288,1.89,10.279,5.593,14.049c3.704,3.773,8.655,5.85,13.942,5.85h56.611
			v9.018h-56.212c-10.797,0-19.74,8.602-19.934,19.176c-0.097,5.288,1.89,10.279,5.593,14.049c3.704,3.773,8.655,5.85,13.942,5.85
			h56.611v9.018h-56.212c-10.797,0-19.74,8.602-19.934,19.176c-0.097,5.288,1.89,10.279,5.593,14.049
			c3.704,3.773,8.655,5.85,13.942,5.85h56.611v24.882c0,4.151,3.365,7.515,7.515,7.515s7.515-3.364,7.515-7.515v-32.396
			c0-4.151-3.365-7.515-7.515-7.515h-64.125c-1.22,0-2.363-0.48-3.217-1.351c-0.855-0.87-1.313-2.024-1.291-3.245
			c0.044-2.398,2.291-4.422,4.907-4.422h63.726c4.15,0,7.515-3.364,7.515-7.515v-24.047c0-4.151-3.365-7.515-7.515-7.515h-64.125
			c-1.22,0-2.363-0.48-3.217-1.351c-0.855-0.87-1.313-2.024-1.291-3.245c0.044-2.398,2.291-4.422,4.907-4.422h63.726
			c4.15,0,7.515-3.364,7.515-7.515v-24.047c0-4.151-3.365-7.515-7.515-7.515h-64.125c-1.22,0-2.363-0.48-3.217-1.351
			c-0.855-0.87-1.313-2.024-1.291-3.245c0.044-2.398,2.291-4.422,4.907-4.422h63.726c4.15,0,7.515-3.364,7.515-7.515V127.75
			c0-4.151-3.365-7.515-7.515-7.515h-64.125c-1.22,0-2.363-0.48-3.217-1.351c-0.855-0.87-1.313-2.024-1.291-3.245
			c0.044-2.398,2.291-4.422,4.907-4.422h63.726c4.15,0,7.515-3.364,7.515-7.515V79.656c0-4.151-3.365-7.515-7.515-7.515h-64.125
			c-1.22,0-2.363-0.48-3.217-1.351c-0.855-0.87-1.313-2.024-1.291-3.245c0.044-2.398,2.291-4.422,4.907-4.422h63.726
			c4.15,0,7.515-3.364,7.515-7.515V31.562c0-4.151-3.365-7.515-7.515-7.515h-63.726c-2.616,0-4.864-2.025-4.907-4.421
			c-0.022-1.223,0.436-2.377,1.291-3.246c0.855-0.871,1.998-1.351,3.217-1.351h104.704v481.941h-33.065V335.823
			c0-4.151-3.365-7.515-7.515-7.515s-7.515,3.364-7.515,7.515v168.662c0,4.151,3.365,7.515,7.515,7.515h48.094
			c4.15,0,7.515-3.364,7.515-7.515V7.515C503.996,3.364,500.632,0,496.481,0z"/>
	</g>
</g>
<g>
</g>
<g>
</g>
<g>
</g>
<g>
</g>
<g>
</g>
<g>
</g>
<g>
</g>
<g>
</g>
<g>
</g>
<g>
</g>
<g>
</g>
<g>
</g>
<g>
</g>
<g>
</g>
<g>
</g>
</svg>
