<?xml version="1.0"?>
<svg xmlns="http://www.w3.org/2000/svg" viewBox="0 0 64 64" width="512" height="512"><g id="outline"><path d="M61.957,15.5A3.083,3.083,0,0,0,58.89,13H45a3,3,0,0,0-3,3v4a1,1,0,0,1-1,1h-.081a11.944,11.944,0,0,0-17.838,0H23a1,1,0,0,1-1-1V16a3,3,0,0,0-3-3H5.11a3.083,3.083,0,0,0-3.067,2.5,3,3,0,0,0,2.168,3.4A3.019,3.019,0,0,0,4.043,20.5,3.083,3.083,0,0,0,7.11,23h.062a3.024,3.024,0,0,0-.129,1.5A3.083,3.083,0,0,0,10.11,27h.062a3.024,3.024,0,0,0-.129,1.5A3.083,3.083,0,0,0,13.11,31h7.071a11.984,11.984,0,0,0,23.638,0H50.89a3.083,3.083,0,0,0,3.067-2.5,3.035,3.035,0,0,0-.129-1.5h.062a3.083,3.083,0,0,0,3.067-2.5,3.035,3.035,0,0,0-.129-1.5h.062a3.083,3.083,0,0,0,3.067-2.5,3.039,3.039,0,0,0-.168-1.609,3,3,0,0,0,2.168-3.4ZM20,29H13.11a1.085,1.085,0,0,1-1.094-.825A1,1,0,0,1,13,27h3V25H10.11a1.085,1.085,0,0,1-1.094-.825A1,1,0,0,1,10,23h7V21H7.11a1.085,1.085,0,0,1-1.094-.825A1,1,0,0,1,7,19H18V17H5a1,1,0,0,1-.983-1.179A1.084,1.084,0,0,1,5.11,15H19a1,1,0,0,1,1,1v4a3,3,0,0,0,1.784,2.737A11.906,11.906,0,0,0,20,29ZM32,39A10,10,0,1,1,42,29,10.011,10.011,0,0,1,32,39ZM59.764,16.645A1,1,0,0,1,59,17H46v2H57a1,1,0,0,1,.983,1.179A1.084,1.084,0,0,1,56.89,21H47v2h7a1,1,0,0,1,.983,1.179A1.084,1.084,0,0,1,53.89,25H48v2h3a1,1,0,0,1,.983,1.179A1.084,1.084,0,0,1,50.89,29H44a11.906,11.906,0,0,0-1.784-6.263A3,3,0,0,0,44,20V16a1,1,0,0,1,1-1H58.89a1.085,1.085,0,0,1,1.094.825A1,1,0,0,1,59.764,16.645Z"/><path d="M35,22H33v2H31V22H29v2H28a1,1,0,0,0-1,1v4a1,1,0,0,0,1,1h7v2H27v2h2v2h2V34h2v2h2V34h1a1,1,0,0,0,1-1V29a1,1,0,0,0-1-1H29V26h8V24H35Z"/><path d="M32,15c3.484,0,7-.928,7-3s-3.516-3-7-3-7,.928-7,3S28.516,15,32,15Zm0-4c2.764,0,4.439.63,4.909,1-.47.37-2.145,1-4.909,1s-4.439-.63-4.909-1C27.561,11.63,29.236,11,32,11Z"/><path d="M49.787,41.741,41.7,44.683A3,3,0,0,0,39,43H23V42a1,1,0,0,0-1-1H18a1,1,0,0,0-1,1v1H13a1,1,0,0,0-1,1v9a1,1,0,0,0,1,1h4v1a1,1,0,0,0,1,1h4a1,1,0,0,0,1-1v-.858l13.868,1.849A.976.976,0,0,0,37,56a1,1,0,0,0,.447-.1l15.166-7.583a3.582,3.582,0,0,0-2.826-6.571ZM17,52H14V45h3Zm4,2H19V43h2Zm31.544-8.5a1.581,1.581,0,0,1-.826,1.022l-14.89,7.446L23,52.125V45H39a1,1,0,0,1,0,2H29v2H39a3,3,0,0,0,2.9-2.262l8.573-3.117a1.583,1.583,0,0,1,1.842.586A1.562,1.562,0,0,1,52.544,45.5Z"/></g></svg>
